<svg width="24" height="24" viewBox="0 0 24 24" fill="none" xmlns="http://www.w3.org/2000/svg">
<path d="M12.7778 15L9 11.2222" stroke="#FAFAFA" stroke-width="2" stroke-linecap="round" stroke-linejoin="round"/>
<path d="M2 22C4 22 6.60801 22.3417 7.97485 20.9749C9.34168 19.608 9.34168 17.392 7.97485 16.0251C6.60801 14.6583 4.39194 14.6583 3.0251 16.0251C1.65827 17.392 3.0251 20 2 22Z" stroke="#FAFAFA" stroke-width="2" stroke-linecap="round" stroke-linejoin="round"/>
<path d="M7.99995 16C7.50853 15.5086 7.26283 15.2629 7.12391 15.0056C6.79079 14.3885 6.80514 13.6421 7.16173 13.0384C7.31043 12.7866 7.5654 12.5505 8.07534 12.0783L17.9434 2.94124C18.8126 2.13645 20.1624 2.1624 20.9999 3C21.8375 3.83759 21.8635 5.18737 21.0587 6.05654L11.9216 15.9246C11.4494 16.4345 11.2134 16.6895 10.9616 16.8382C10.3578 17.1948 9.6114 17.2091 8.99438 16.876C8.73707 16.7371 8.49136 16.4914 7.99995 16Z" stroke="#FAFAFA" stroke-width="2" stroke-linecap="round" stroke-linejoin="round"/>
</svg>
