<!-- Generated by IcoMoon.io -->
<svg version="1.1" xmlns="http://www.w3.org/2000/svg" width="1024" height="1024" viewBox="0 0 1024 1024">
<g id="icomoon-ignore">
</g>
<path fill="#1c1d20" d="M213.333 0h597.333c117.821 0 213.333 95.513 213.333 213.333v597.333c0 117.821-95.513 213.333-213.333 213.333h-597.333c-117.821 0-213.333-95.513-213.333-213.333v-597.333c0-117.821 95.513-213.333 213.333-213.333z"></path>
<path fill="#fafafa" d="M783.347 491.789l2.652-55.942-48.879 30.432-15.157-25.146 51.913-25.513-51.913-25.51 15.157-25.51 48.879 30.43-2.652-55.942h29.935l-2.654 55.942 48.881-30.43 15.155 25.51-51.91 25.51 51.91 25.513-15.155 25.146-48.881-30.432 2.654 55.942h-29.935z"></path>
<path fill="#fafafa" d="M673.079 401.122v32.119h-122.901v-32.119h122.901zM583.678 606.317v-229.054c0-12.725 2.987-23.309 8.96-31.75 6.103-8.565 14.022-14.929 23.761-19.089 9.869-4.282 20.452-6.423 31.748-6.423 8.7 0 16.102 0.672 22.204 2.018s10.583 2.509 13.44 3.488l-10.127 32.303c-1.948-0.612-4.48-1.286-7.597-2.020-2.987-0.734-6.752-1.101-11.298-1.101-10.257 0-17.658 2.447-22.204 7.341-4.544 4.772-6.816 11.746-6.816 20.924v223.364h-42.071z"></path>
<path fill="#fafafa" d="M558.554 401.122v32.119h-122.903v-32.119h122.903zM469.152 606.317v-229.054c0-12.725 2.987-23.309 8.96-31.75 6.101-8.565 14.022-14.929 23.761-19.089 9.869-4.282 20.452-6.423 31.748-6.423 8.7 0 16.102 0.672 22.204 2.018s10.583 2.509 13.44 3.488l-10.129 32.303c-1.948-0.612-4.478-1.286-7.595-2.020-2.987-0.734-6.752-1.101-11.298-1.101-10.257 0-17.658 2.447-22.204 7.341-4.544 4.772-6.816 11.746-6.816 20.924v223.364h-42.071z"></path>
<path fill="#fafafa" d="M345.301 606.317c-20.621 0-38.477-4.303-53.566-12.909-15.089-8.604-26.72-20.723-34.893-36.356-8.049-15.755-12.073-34.116-12.073-55.083 0-20.845 3.962-39.204 11.883-55.081 8.049-15.876 19.302-28.239 33.762-37.086 14.586-8.969 31.689-13.453 51.302-13.453 11.947 0 23.516 1.879 34.705 5.636 11.191 3.757 21.252 9.696 30.178 17.815 8.928 8.119 15.97 18.662 21.126 31.631 5.28 12.969 7.921 28.602 7.921 46.901v14.18h-167.678v-29.632h146.554l-19.051 9.815c0-12.482-2.012-23.511-6.035-33.084-4.023-9.574-10.059-17.028-18.108-22.362-7.921-5.453-17.792-8.179-29.613-8.179-11.819 0-21.941 2.726-30.366 8.179-8.299 5.455-14.65 12.666-19.051 21.634s-6.601 18.784-6.601 29.449v20.179c0 13.937 2.515 25.754 7.543 35.447 5.030 9.696 12.009 17.088 20.937 22.178 9.054 5.090 19.554 7.635 31.499 7.635 7.797 0 14.837-1.090 21.124-3.27 6.413-2.182 11.947-5.455 16.599-9.818s8.173-9.756 10.562-16.179l38.854 7.089c-3.145 10.908-8.676 20.482-16.597 28.723-7.923 8.241-17.92 14.665-29.99 19.27-11.947 4.484-25.589 6.726-40.93 6.726z"></path>
<path fill="#fafafa" d="M181.953 399.467h38.713v219.59c0.119 13.766-2.27 25.382-7.168 34.848-4.9 9.463-12.069 16.593-21.508 21.387-9.439 4.917-21.029 7.375-34.77 7.375h-7.886v-34.479h6.273c9.32 0 16.011-2.519 20.074-7.558s6.153-12.292 6.273-21.756v-219.407zM201.13 367.753c-6.811 0-12.606-2.334-17.385-7.006-4.78-4.67-7.169-10.263-7.169-16.779 0-6.637 2.39-12.29 7.169-16.962 4.779-4.67 10.574-7.006 17.385-7.006 6.691 0 12.427 2.336 17.206 7.006 4.898 4.672 7.347 10.325 7.347 16.962 0 6.515-2.449 12.109-7.347 16.779-4.779 4.672-10.515 7.006-17.206 7.006z"></path>
</svg>
